<svg width="122" height="20" viewBox="0 0 122 20" fill="none" xmlns="http://www.w3.org/2000/svg">
<path d="M0.728 19V1.12H3.848L10.544 10.216H9.056L15.608 1.12H18.728V19H15.44V4.84L16.712 5.152L9.92 14.2H9.536L2.912 5.152L3.992 4.84V19H0.728ZM28.2699 19.288C26.9899 19.288 25.8219 18.992 24.7659 18.4C23.7259 17.808 22.8939 17 22.2699 15.976C21.6619 14.952 21.3579 13.784 21.3579 12.472C21.3579 11.16 21.6619 9.992 22.2699 8.968C22.8939 7.944 23.7259 7.136 24.7659 6.544C25.8059 5.952 26.9739 5.656 28.2699 5.656C29.5499 5.656 30.7099 5.952 31.7499 6.544C32.7899 7.136 33.6139 7.944 34.2219 8.968C34.8459 9.976 35.1579 11.144 35.1579 12.472C35.1579 13.784 34.8459 14.952 34.2219 15.976C33.5979 17 32.7659 17.808 31.7259 18.4C30.6859 18.992 29.5339 19.288 28.2699 19.288ZM28.2699 16.408C28.9739 16.408 29.5899 16.24 30.1179 15.904C30.6619 15.568 31.0859 15.104 31.3899 14.512C31.7099 13.904 31.8699 13.224 31.8699 12.472C31.8699 11.704 31.7099 11.032 31.3899 10.456C31.0859 9.864 30.6619 9.4 30.1179 9.064C29.5899 8.712 28.9739 8.536 28.2699 8.536C27.5499 8.536 26.9179 8.712 26.3739 9.064C25.8299 9.4 25.3979 9.864 25.0779 10.456C24.7739 11.032 24.6219 11.704 24.6219 12.472C24.6219 13.224 24.7739 13.904 25.0779 14.512C25.3979 15.104 25.8299 15.568 26.3739 15.904C26.9179 16.24 27.5499 16.408 28.2699 16.408ZM43.6141 19.288C42.3501 19.288 41.2221 18.992 40.2301 18.4C39.2381 17.792 38.4541 16.968 37.8781 15.928C37.3021 14.888 37.0141 13.736 37.0141 12.472C37.0141 11.192 37.3021 10.04 37.8781 9.016C38.4541 7.992 39.2381 7.176 40.2301 6.568C41.2381 5.96 42.3581 5.656 43.5901 5.656C44.5821 5.656 45.4621 5.856 46.2301 6.256C47.0141 6.64 47.6301 7.184 48.0781 7.888L47.5981 8.536V0.831999H50.7421V19H47.7661V16.48L48.1021 17.104C47.6541 17.808 47.0301 18.352 46.2301 18.736C45.4301 19.104 44.5581 19.288 43.6141 19.288ZM43.9501 16.408C44.6701 16.408 45.3021 16.24 45.8461 15.904C46.3901 15.568 46.8141 15.104 47.1181 14.512C47.4381 13.92 47.5981 13.24 47.5981 12.472C47.5981 11.72 47.4381 11.048 47.1181 10.456C46.8141 9.848 46.3901 9.376 45.8461 9.04C45.3021 8.704 44.6701 8.536 43.9501 8.536C43.2461 8.536 42.6141 8.712 42.0541 9.064C41.4941 9.4 41.0541 9.864 40.7341 10.456C40.4301 11.032 40.2781 11.704 40.2781 12.472C40.2781 13.24 40.4301 13.92 40.7341 14.512C41.0541 15.104 41.4941 15.568 42.0541 15.904C42.6141 16.24 43.2461 16.408 43.9501 16.408ZM59.8591 19.288C58.5151 19.288 57.3391 18.984 56.3311 18.376C55.3231 17.768 54.5391 16.944 53.9791 15.904C53.4191 14.864 53.1391 13.712 53.1391 12.448C53.1391 11.136 53.4191 9.976 53.9791 8.968C54.5551 7.944 55.3311 7.136 56.3071 6.544C57.2991 5.952 58.4031 5.656 59.6191 5.656C60.6431 5.656 61.5391 5.824 62.3071 6.16C63.0911 6.496 63.7551 6.96 64.2991 7.552C64.8431 8.144 65.2591 8.824 65.5471 9.592C65.8351 10.344 65.9791 11.16 65.9791 12.04C65.9791 12.264 65.9631 12.496 65.9311 12.736C65.9151 12.976 65.8751 13.184 65.8111 13.36H55.7311V10.96H64.0351L62.5471 12.088C62.6911 11.352 62.6511 10.696 62.4271 10.12C62.2191 9.544 61.8671 9.088 61.3711 8.752C60.8911 8.416 60.3071 8.248 59.6191 8.248C58.9631 8.248 58.3791 8.416 57.8671 8.752C57.3551 9.072 56.9631 9.552 56.6911 10.192C56.4351 10.816 56.3391 11.576 56.4031 12.472C56.3391 13.272 56.4431 13.984 56.7151 14.608C57.0031 15.216 57.4191 15.688 57.9631 16.024C58.5231 16.36 59.1631 16.528 59.8831 16.528C60.6031 16.528 61.2111 16.376 61.7071 16.072C62.2191 15.768 62.6191 15.36 62.9071 14.848L65.4511 16.096C65.1951 16.72 64.7951 17.272 64.2511 17.752C63.7071 18.232 63.0591 18.608 62.3071 18.88C61.5711 19.152 60.7551 19.288 59.8591 19.288ZM68.3624 19V5.944H71.3144V8.848L71.0744 8.416C71.3784 7.44 71.8504 6.76 72.4904 6.376C73.1464 5.992 73.9304 5.8 74.8424 5.8H75.6104V8.584H74.4824C73.5864 8.584 72.8664 8.864 72.3224 9.424C71.7784 9.968 71.5064 10.736 71.5064 11.728V19H68.3624ZM77.339 19V5.944H80.291V8.512L80.051 8.056C80.355 7.272 80.851 6.68 81.539 6.28C82.243 5.864 83.059 5.656 83.987 5.656C84.947 5.656 85.795 5.864 86.531 6.28C87.283 6.696 87.867 7.28 88.283 8.032C88.699 8.768 88.907 9.624 88.907 10.6V19H85.763V11.344C85.763 10.768 85.651 10.272 85.427 9.856C85.203 9.44 84.891 9.12 84.491 8.896C84.107 8.656 83.651 8.536 83.123 8.536C82.611 8.536 82.155 8.656 81.755 8.896C81.355 9.12 81.043 9.44 80.819 9.856C80.595 10.272 80.483 10.768 80.483 11.344V19H77.339ZM91.5656 19V5.944H94.7096V19H91.5656ZM91.5656 4.48V1.12H94.7096V4.48H91.5656ZM96.4844 19V16.456L104.068 7.672L104.548 8.752H96.8204V5.944H107.332V8.512L99.8924 17.296L99.4124 16.216H107.38V19H96.4844ZM115.359 19.288C114.015 19.288 112.839 18.984 111.831 18.376C110.823 17.768 110.039 16.944 109.479 15.904C108.919 14.864 108.639 13.712 108.639 12.448C108.639 11.136 108.919 9.976 109.479 8.968C110.055 7.944 110.831 7.136 111.807 6.544C112.799 5.952 113.903 5.656 115.119 5.656C116.143 5.656 117.039 5.824 117.807 6.16C118.591 6.496 119.255 6.96 119.799 7.552C120.343 8.144 120.759 8.824 121.047 9.592C121.335 10.344 121.479 11.16 121.479 12.04C121.479 12.264 121.463 12.496 121.431 12.736C121.415 12.976 121.375 13.184 121.311 13.36H111.231V10.96H119.535L118.047 12.088C118.191 11.352 118.151 10.696 117.927 10.12C117.719 9.544 117.367 9.088 116.871 8.752C116.391 8.416 115.807 8.248 115.119 8.248C114.463 8.248 113.879 8.416 113.367 8.752C112.855 9.072 112.463 9.552 112.191 10.192C111.935 10.816 111.839 11.576 111.903 12.472C111.839 13.272 111.943 13.984 112.215 14.608C112.503 15.216 112.919 15.688 113.463 16.024C114.023 16.36 114.663 16.528 115.383 16.528C116.103 16.528 116.711 16.376 117.207 16.072C117.719 15.768 118.119 15.36 118.407 14.848L120.951 16.096C120.695 16.72 120.295 17.272 119.751 17.752C119.207 18.232 118.559 18.608 117.807 18.88C117.071 19.152 116.255 19.288 115.359 19.288Z" fill="#2A3547"/>
</svg>
