<svg width="211" height="209" viewBox="0 0 211 209" fill="none" xmlns="http://www.w3.org/2000/svg">
<circle cx="105.5" cy="105.5" r="95.3819" stroke="#13DEB9" stroke-width="16"/>
<mask id="path-2-outside-1_1_236" maskUnits="userSpaceOnUse" x="0.118164" y="0.118134" width="211" height="108" fill="black">
<rect fill="white" x="0.118164" y="0.118134" width="211" height="108"/>
<path d="M208.882 105.5C208.882 78.0814 197.99 51.7858 178.602 32.398C159.214 13.0101 132.919 2.11814 105.5 2.11813C78.0815 2.11813 51.7859 13.0101 32.398 32.398C13.0102 51.7858 2.11817 78.0814 2.11816 105.5L29.9014 105.5C29.9014 85.45 37.8662 66.2211 52.0437 52.0437C66.2212 37.8662 85.45 29.9013 105.5 29.9013C125.55 29.9013 144.779 37.8662 158.956 52.0437C173.134 66.2212 181.099 85.45 181.099 105.5H208.882Z"/>
</mask>
<path d="M208.882 105.5C208.882 78.0814 197.99 51.7858 178.602 32.398C159.214 13.0101 132.919 2.11814 105.5 2.11813C78.0815 2.11813 51.7859 13.0101 32.398 32.398C13.0102 51.7858 2.11817 78.0814 2.11816 105.5L29.9014 105.5C29.9014 85.45 37.8662 66.2211 52.0437 52.0437C66.2212 37.8662 85.45 29.9013 105.5 29.9013C125.55 29.9013 144.779 37.8662 158.956 52.0437C173.134 66.2212 181.099 85.45 181.099 105.5H208.882Z" fill="#5D87FF"/>
<path d="M208.882 105.5C208.882 78.0814 197.99 51.7858 178.602 32.398C159.214 13.0101 132.919 2.11814 105.5 2.11813C78.0815 2.11813 51.7859 13.0101 32.398 32.398C13.0102 51.7858 2.11817 78.0814 2.11816 105.5L29.9014 105.5C29.9014 85.45 37.8662 66.2211 52.0437 52.0437C66.2212 37.8662 85.45 29.9013 105.5 29.9013C125.55 29.9013 144.779 37.8662 158.956 52.0437C173.134 66.2212 181.099 85.45 181.099 105.5H208.882Z" stroke="white" stroke-width="4" mask="url(#path-2-outside-1_1_236)"/>
<mask id="path-3-outside-2_1_236" maskUnits="userSpaceOnUse" x="80.0416" y="12.6412" width="169.531" height="185.636" fill="black">
<rect fill="white" x="80.0416" y="12.6412" width="169.531" height="185.636"/>
<path d="M157.191 195.031C172.206 186.362 184.799 174.056 193.813 159.246C202.826 144.435 207.97 127.596 208.771 110.276C209.572 92.957 206.005 75.7144 198.397 60.135C190.789 44.5556 179.385 31.1398 165.234 21.122L149.174 43.8077C159.52 51.1321 167.858 60.941 173.421 72.3317C178.983 83.7225 181.592 96.3292 181.006 108.992C180.42 121.655 176.659 133.967 170.069 144.796C163.479 155.625 154.271 164.622 143.293 170.96L157.191 195.031Z"/>
</mask>
<path d="M157.191 195.031C172.206 186.362 184.799 174.056 193.813 159.246C202.826 144.435 207.97 127.596 208.771 110.276C209.572 92.957 206.005 75.7144 198.397 60.135C190.789 44.5556 179.385 31.1398 165.234 21.122L149.174 43.8077C159.52 51.1321 167.858 60.941 173.421 72.3317C178.983 83.7225 181.592 96.3292 181.006 108.992C180.42 121.655 176.659 133.967 170.069 144.796C163.479 155.625 154.271 164.622 143.293 170.96L157.191 195.031Z" fill="#49BEFF"/>
<path d="M157.191 195.031C172.206 186.362 184.799 174.056 193.813 159.246C202.826 144.435 207.97 127.596 208.771 110.276C209.572 92.957 206.005 75.7144 198.397 60.135C190.789 44.5556 179.385 31.1398 165.234 21.122L149.174 43.8077C159.52 51.1321 167.858 60.941 173.421 72.3317C178.983 83.7225 181.592 96.3292 181.006 108.992C180.42 121.655 176.659 133.967 170.069 144.796C163.479 155.625 154.271 164.622 143.293 170.96L157.191 195.031Z" stroke="white" stroke-width="4" mask="url(#path-3-outside-2_1_236)"/>
<circle cx="105" cy="106" r="92" fill="white"/>
<path d="M60.4901 118.252C59.5101 118.252 58.6001 118.07 57.7601 117.706C56.9201 117.328 56.2061 116.817 55.6181 116.173C55.0301 115.529 54.5961 114.787 54.3161 113.947L56.4161 113.065C56.7941 114.031 57.3471 114.773 58.0751 115.291C58.8031 115.809 59.6431 116.068 60.5951 116.068C61.1551 116.068 61.6451 115.984 62.0651 115.816C62.4851 115.634 62.8071 115.382 63.0311 115.06C63.2691 114.738 63.3881 114.367 63.3881 113.947C63.3881 113.373 63.2271 112.918 62.9051 112.582C62.5831 112.246 62.1071 111.98 61.4771 111.784L58.5371 110.86C57.3611 110.496 56.4651 109.943 55.8491 109.201C55.2331 108.445 54.9251 107.563 54.9251 106.555C54.9251 105.673 55.1421 104.903 55.5761 104.245C56.0101 103.573 56.6051 103.048 57.3611 102.67C58.1311 102.292 59.0061 102.103 59.9861 102.103C60.9241 102.103 61.7781 102.271 62.5481 102.607C63.3181 102.929 63.9761 103.377 64.5221 103.951C65.0821 104.525 65.4881 105.19 65.7401 105.946L63.6821 106.849C63.3741 106.023 62.8911 105.386 62.2331 104.938C61.5891 104.49 60.8401 104.266 59.9861 104.266C59.4681 104.266 59.0131 104.357 58.6211 104.539C58.2291 104.707 57.9211 104.959 57.6971 105.295C57.4871 105.617 57.3821 105.995 57.3821 106.429C57.3821 106.933 57.5431 107.381 57.8651 107.773C58.1871 108.165 58.6771 108.459 59.3351 108.655L62.0651 109.516C63.3111 109.894 64.2491 110.44 64.8791 111.154C65.5091 111.854 65.8241 112.729 65.8241 113.779C65.8241 114.647 65.5931 115.417 65.1311 116.089C64.6831 116.761 64.0601 117.293 63.2621 117.685C62.4641 118.063 61.5401 118.252 60.4901 118.252ZM59.5241 120.1V100.255H61.2041V120.1H59.5241ZM73.2678 118.252C72.4418 118.252 71.6648 118.105 70.9368 117.811C70.2088 117.503 69.5788 117.076 69.0468 116.53C68.5148 115.984 68.1368 115.326 67.9128 114.556L69.9918 113.758C70.2578 114.5 70.6918 115.067 71.2938 115.459C71.8958 115.851 72.5538 116.047 73.2678 116.047C73.8558 116.047 74.3738 115.914 74.8218 115.648C75.2698 115.382 75.6198 115.018 75.8718 114.556C76.1378 114.094 76.2708 113.569 76.2708 112.981C76.2708 112.379 76.1378 111.854 75.8718 111.406C75.6198 110.944 75.2698 110.587 74.8218 110.335C74.3738 110.069 73.8558 109.936 73.2678 109.936C72.6798 109.936 72.1408 110.069 71.6508 110.335C71.1608 110.601 70.8038 110.958 70.5798 111.406L68.5848 110.965L69.8028 102.355H78.1398V104.455H70.7688L71.7138 103.426L70.8108 110.02L70.0338 109.495C70.4538 108.907 70.9648 108.48 71.5668 108.214C72.1688 107.948 72.8548 107.815 73.6248 107.815C74.6468 107.815 75.5358 108.046 76.2918 108.508C77.0618 108.956 77.6568 109.572 78.0768 110.356C78.5108 111.126 78.7278 112.001 78.7278 112.981C78.7278 113.975 78.4898 114.871 78.0138 115.669C77.5378 116.467 76.8868 117.097 76.0608 117.559C75.2488 118.021 74.3178 118.252 73.2678 118.252ZM87.4477 118.252C86.2017 118.252 85.1097 117.916 84.1717 117.244C83.2337 116.558 82.4987 115.613 81.9667 114.409C81.4487 113.191 81.1897 111.777 81.1897 110.167C81.1897 108.543 81.4487 107.129 81.9667 105.925C82.4987 104.721 83.2267 103.783 84.1507 103.111C85.0887 102.439 86.1807 102.103 87.4267 102.103C88.6727 102.103 89.7577 102.439 90.6817 103.111C91.6197 103.783 92.3477 104.728 92.8657 105.946C93.3977 107.15 93.6637 108.557 93.6637 110.167C93.6637 111.777 93.4047 113.191 92.8867 114.409C92.3687 115.613 91.6407 116.558 90.7027 117.244C89.7787 117.916 88.6937 118.252 87.4477 118.252ZM87.4477 115.984C88.2177 115.984 88.8827 115.746 89.4427 115.27C90.0027 114.794 90.4367 114.122 90.7447 113.254C91.0527 112.386 91.2067 111.357 91.2067 110.167C91.2067 108.977 91.0527 107.948 90.7447 107.08C90.4367 106.212 90.0027 105.54 89.4427 105.064C88.8827 104.588 88.2107 104.35 87.4267 104.35C86.6567 104.35 85.9917 104.588 85.4317 105.064C84.8717 105.54 84.4377 106.212 84.1297 107.08C83.8217 107.948 83.6677 108.977 83.6677 110.167C83.6677 111.343 83.8217 112.372 84.1297 113.254C84.4377 114.122 84.8717 114.794 85.4317 115.27C86.0057 115.746 86.6777 115.984 87.4477 115.984ZM102.48 118.252C101.234 118.252 100.142 117.916 99.2039 117.244C98.2659 116.558 97.5309 115.613 96.9989 114.409C96.4809 113.191 96.2219 111.777 96.2219 110.167C96.2219 108.543 96.4809 107.129 96.9989 105.925C97.5309 104.721 98.2589 103.783 99.1829 103.111C100.121 102.439 101.213 102.103 102.459 102.103C103.705 102.103 104.79 102.439 105.714 103.111C106.652 103.783 107.38 104.728 107.898 105.946C108.43 107.15 108.696 108.557 108.696 110.167C108.696 111.777 108.437 113.191 107.919 114.409C107.401 115.613 106.673 116.558 105.735 117.244C104.811 117.916 103.726 118.252 102.48 118.252ZM102.48 115.984C103.25 115.984 103.915 115.746 104.475 115.27C105.035 114.794 105.469 114.122 105.777 113.254C106.085 112.386 106.239 111.357 106.239 110.167C106.239 108.977 106.085 107.948 105.777 107.08C105.469 106.212 105.035 105.54 104.475 105.064C103.915 104.588 103.243 104.35 102.459 104.35C101.689 104.35 101.024 104.588 100.464 105.064C99.9039 105.54 99.4699 106.212 99.1619 107.08C98.8539 107.948 98.6999 108.977 98.6999 110.167C98.6999 111.343 98.8539 112.372 99.1619 113.254C99.4699 114.122 99.9039 114.794 100.464 115.27C101.038 115.746 101.71 115.984 102.48 115.984ZM111.968 121.087V119.932C112.43 119.82 112.787 119.603 113.039 119.281C113.291 118.973 113.445 118.546 113.501 118H112.388V115.27H114.803V117.055C114.803 118.175 114.565 119.078 114.089 119.764C113.613 120.45 112.906 120.891 111.968 121.087ZM125.138 118V114.472H117.683V112.414L125.033 102.355H127.49V112.414H129.653V114.472H127.49V118H125.138ZM119.51 113.317L119.111 112.414H125.138V104.329L125.81 104.539L119.51 113.317ZM136.719 118.252C135.893 118.252 135.116 118.105 134.388 117.811C133.66 117.503 133.03 117.076 132.498 116.53C131.966 115.984 131.588 115.326 131.364 114.556L133.443 113.758C133.709 114.5 134.143 115.067 134.745 115.459C135.347 115.851 136.005 116.047 136.719 116.047C137.307 116.047 137.825 115.914 138.273 115.648C138.721 115.382 139.071 115.018 139.323 114.556C139.589 114.094 139.722 113.569 139.722 112.981C139.722 112.379 139.589 111.854 139.323 111.406C139.071 110.944 138.721 110.587 138.273 110.335C137.825 110.069 137.307 109.936 136.719 109.936C136.131 109.936 135.592 110.069 135.102 110.335C134.612 110.601 134.255 110.958 134.031 111.406L132.036 110.965L133.254 102.355H141.591V104.455H134.22L135.165 103.426L134.262 110.02L133.485 109.495C133.905 108.907 134.416 108.48 135.018 108.214C135.62 107.948 136.306 107.815 137.076 107.815C138.098 107.815 138.987 108.046 139.743 108.508C140.513 108.956 141.108 109.572 141.528 110.356C141.962 111.126 142.179 112.001 142.179 112.981C142.179 113.975 141.941 114.871 141.465 115.669C140.989 116.467 140.338 117.097 139.512 117.559C138.7 118.021 137.769 118.252 136.719 118.252ZM149.975 118.252C148.883 118.252 147.924 118.042 147.098 117.622C146.286 117.188 145.656 116.614 145.208 115.9C144.76 115.172 144.536 114.367 144.536 113.485C144.536 112.477 144.809 111.609 145.355 110.881C145.915 110.139 146.699 109.6 147.707 109.264L147.602 109.894C146.86 109.614 146.272 109.145 145.838 108.487C145.418 107.815 145.208 107.08 145.208 106.282C145.208 105.484 145.411 104.77 145.817 104.14C146.237 103.51 146.804 103.013 147.518 102.649C148.246 102.285 149.065 102.103 149.975 102.103C150.899 102.103 151.718 102.285 152.432 102.649C153.146 102.999 153.706 103.489 154.112 104.119C154.532 104.749 154.742 105.47 154.742 106.282C154.742 107.108 154.525 107.85 154.091 108.508C153.671 109.152 153.097 109.614 152.369 109.894L152.264 109.264C153.272 109.614 154.056 110.153 154.616 110.881C155.176 111.609 155.456 112.477 155.456 113.485C155.456 114.367 155.225 115.172 154.763 115.9C154.315 116.614 153.678 117.188 152.852 117.622C152.026 118.042 151.067 118.252 149.975 118.252ZM149.975 116.152C150.577 116.152 151.102 116.04 151.55 115.816C151.998 115.578 152.348 115.256 152.6 114.85C152.852 114.444 152.978 113.968 152.978 113.422C152.978 112.876 152.852 112.4 152.6 111.994C152.348 111.588 151.998 111.273 151.55 111.049C151.102 110.825 150.577 110.713 149.975 110.713C149.387 110.713 148.869 110.825 148.421 111.049C147.973 111.273 147.623 111.588 147.371 111.994C147.119 112.4 146.993 112.876 146.993 113.422C146.993 113.968 147.119 114.444 147.371 114.85C147.623 115.256 147.973 115.578 148.421 115.816C148.869 116.04 149.387 116.152 149.975 116.152ZM149.975 108.613C150.423 108.613 150.815 108.522 151.151 108.34C151.501 108.144 151.774 107.878 151.97 107.542C152.166 107.206 152.264 106.828 152.264 106.408C152.264 105.974 152.166 105.596 151.97 105.274C151.774 104.938 151.501 104.679 151.151 104.497C150.815 104.301 150.423 104.203 149.975 104.203C149.541 104.203 149.149 104.301 148.799 104.497C148.449 104.679 148.176 104.938 147.98 105.274C147.784 105.596 147.686 105.974 147.686 106.408C147.686 106.828 147.784 107.206 147.98 107.542C148.176 107.878 148.449 108.144 148.799 108.34C149.149 108.522 149.541 108.613 149.975 108.613Z" fill="#2A3547"/>
</svg>
