<svg width="300" height="34" viewBox="0 0 300 34" fill="none" xmlns="http://www.w3.org/2000/svg">
<rect y="28" width="300" height="6" rx="3" fill="white" fill-opacity="0.2"/>
<rect y="28" width="195" height="6" rx="3" fill="white"/>
<rect x="162.417" width="43" height="20" rx="4" fill="white"/>
<path d="M174.029 14.644C173.445 14.644 172.925 14.516 172.469 14.26C172.013 14.004 171.653 13.652 171.389 13.204C171.133 12.756 171.005 12.248 171.005 11.68C171.005 11.384 171.037 11.088 171.101 10.792C171.165 10.496 171.277 10.188 171.437 9.868C171.605 9.548 171.829 9.204 172.109 8.836L174.605 5.56H176.297L173.237 9.52L172.997 9.364C173.109 9.236 173.229 9.136 173.357 9.064C173.493 8.992 173.633 8.94 173.777 8.908C173.929 8.876 174.089 8.86 174.257 8.86C174.793 8.86 175.273 8.984 175.697 9.232C176.121 9.48 176.453 9.816 176.693 10.24C176.941 10.664 177.065 11.152 177.065 11.704C177.065 12.264 176.933 12.768 176.669 13.216C176.405 13.656 176.045 14.004 175.589 14.26C175.141 14.516 174.621 14.644 174.029 14.644ZM174.029 13.384C174.341 13.384 174.617 13.312 174.857 13.168C175.097 13.024 175.289 12.828 175.433 12.58C175.577 12.324 175.649 12.036 175.649 11.716C175.649 11.388 175.577 11.1 175.433 10.852C175.297 10.604 175.105 10.412 174.857 10.276C174.617 10.132 174.341 10.06 174.029 10.06C173.725 10.06 173.449 10.132 173.201 10.276C172.961 10.412 172.769 10.604 172.625 10.852C172.481 11.1 172.409 11.388 172.409 11.716C172.409 12.036 172.481 12.324 172.625 12.58C172.769 12.828 172.961 13.024 173.201 13.168C173.449 13.312 173.725 13.384 174.029 13.384ZM181.212 14.644C180.74 14.644 180.296 14.56 179.88 14.392C179.464 14.216 179.104 13.972 178.8 13.66C178.496 13.348 178.28 12.972 178.152 12.532L179.34 12.076C179.492 12.5 179.74 12.824 180.084 13.048C180.428 13.272 180.804 13.384 181.212 13.384C181.548 13.384 181.844 13.308 182.1 13.156C182.356 13.004 182.556 12.796 182.7 12.532C182.852 12.268 182.928 11.968 182.928 11.632C182.928 11.288 182.852 10.988 182.7 10.732C182.556 10.468 182.356 10.264 182.1 10.12C181.844 9.968 181.548 9.892 181.212 9.892C180.876 9.892 180.568 9.968 180.288 10.12C180.008 10.272 179.804 10.476 179.676 10.732L178.536 10.48L179.232 5.56H183.996V6.76H179.784L180.324 6.172L179.808 9.94L179.364 9.64C179.604 9.304 179.896 9.06 180.24 8.908C180.584 8.756 180.976 8.68 181.416 8.68C182 8.68 182.508 8.812 182.94 9.076C183.38 9.332 183.72 9.684 183.96 10.132C184.208 10.572 184.332 11.072 184.332 11.632C184.332 12.2 184.196 12.712 183.924 13.168C183.652 13.624 183.28 13.984 182.808 14.248C182.344 14.512 181.812 14.644 181.212 14.644ZM186.783 14.5L194.055 5.56H195.567L188.295 14.5H186.783ZM188.151 10.096C187.711 10.096 187.315 9.992 186.963 9.784C186.611 9.568 186.327 9.284 186.111 8.932C185.903 8.58 185.799 8.188 185.799 7.756C185.799 7.324 185.903 6.932 186.111 6.58C186.327 6.22 186.611 5.936 186.963 5.728C187.315 5.52 187.711 5.416 188.151 5.416C188.591 5.416 188.987 5.52 189.339 5.728C189.691 5.936 189.971 6.22 190.179 6.58C190.387 6.932 190.491 7.324 190.491 7.756C190.491 8.188 190.387 8.58 190.179 8.932C189.971 9.284 189.691 9.568 189.339 9.784C188.987 9.992 188.591 10.096 188.151 10.096ZM188.151 9.004C188.399 9.004 188.611 8.944 188.787 8.824C188.971 8.704 189.111 8.548 189.207 8.356C189.303 8.164 189.351 7.964 189.351 7.756C189.351 7.54 189.303 7.34 189.207 7.156C189.111 6.964 188.971 6.808 188.787 6.688C188.611 6.568 188.399 6.508 188.151 6.508C187.911 6.508 187.699 6.568 187.515 6.688C187.331 6.808 187.187 6.964 187.083 7.156C186.987 7.34 186.939 7.54 186.939 7.756C186.939 7.964 186.987 8.164 187.083 8.356C187.187 8.548 187.331 8.704 187.515 8.824C187.699 8.944 187.911 9.004 188.151 9.004ZM194.139 14.644C193.699 14.644 193.299 14.54 192.939 14.332C192.587 14.116 192.307 13.832 192.099 13.48C191.891 13.128 191.787 12.736 191.787 12.304C191.787 11.872 191.891 11.48 192.099 11.128C192.307 10.768 192.587 10.484 192.939 10.276C193.299 10.068 193.699 9.964 194.139 9.964C194.579 9.964 194.975 10.068 195.327 10.276C195.679 10.484 195.959 10.768 196.167 11.128C196.375 11.48 196.479 11.872 196.479 12.304C196.479 12.736 196.375 13.128 196.167 13.48C195.959 13.832 195.679 14.116 195.327 14.332C194.975 14.54 194.579 14.644 194.139 14.644ZM194.139 13.552C194.387 13.552 194.599 13.492 194.775 13.372C194.951 13.252 195.087 13.096 195.183 12.904C195.287 12.712 195.339 12.512 195.339 12.304C195.339 12.088 195.287 11.888 195.183 11.704C195.087 11.512 194.951 11.356 194.775 11.236C194.599 11.116 194.387 11.056 194.139 11.056C193.899 11.056 193.687 11.116 193.503 11.236C193.319 11.356 193.175 11.512 193.071 11.704C192.975 11.888 192.927 12.088 192.927 12.304C192.927 12.512 192.975 12.712 193.071 12.904C193.175 13.096 193.319 13.252 193.503 13.372C193.687 13.492 193.899 13.552 194.139 13.552Z" fill="#5D87FF"/>
<path d="M183.917 24L187.917 20H179.917L183.917 24Z" fill="white"/>
</svg>
